<svg xmlns="http://www.w3.org/2000/svg" width="916" height="1145" viewBox="0 0 916 1145">
<g>
<path d="M 528.02 664.92 C527.72,672.01 527.07,677.41 526.50,677.50 C525.95,677.60 523.25,677.41 520.50,677.08 L 515.50 676.50 L 514.99 663.91 C514.52,652.13 514.30,651.05 511.59,646.96 C508.89,642.88 508.82,642.52 510.49,641.55 C514.64,639.13 528.77,626.88 532.06,622.86 C552.59,597.72 560.20,566.40 552.97,536.78 C537.91,475.09 469.25,444.00 413.26,473.53 C388.06,486.81 370.77,509.27 363.84,537.69 C360.88,549.86 360.87,569.07 363.83,580.72 C369.21,601.91 380.84,621.12 395.61,633.18 C398.52,635.56 400.90,637.72 400.89,638.00 C400.89,638.28 398.64,639.94 395.91,641.70 L 390.93 644.89 L 387.46 642.54 C375.65,634.52 350.92,632.62 335.66,638.57 C334.18,639.14 334.47,638.14 337.16,633.39 C340.14,628.14 340.50,626.68 340.47,620.00 C340.44,610.95 337.63,604.68 330.76,598.34 C325.46,593.46 322.68,592.46 309.14,590.56 C303.44,589.77 298.59,588.92 298.36,588.69 C297.62,587.95 296.15,577.46 295.45,567.81 C294.76,558.44 296.34,535.87 297.99,531.53 C298.73,529.59 300.01,529.15 308.17,528.09 C313.30,527.42 319.60,526.20 322.17,525.38 C335.01,521.29 343.31,505.81 340.03,492.11 C339.17,488.56 336.59,483.96 331.45,476.86 L 324.09 466.70 L 327.30 462.17 C334.24,452.34 362.64,425.00 365.90,425.00 C366.28,425.00 370.17,427.76 374.55,431.14 C385.19,439.35 389.86,441.38 398.03,441.33 C405.55,441.29 411.68,438.98 417.26,434.08 C422.71,429.29 425.63,422.20 427.08,410.24 C427.77,404.59 428.82,399.58 429.41,399.09 C430.86,397.92 449.13,396.00 458.79,396.00 C465.77,396.01 481.43,397.41 486.52,398.49 C488.28,398.87 488.76,400.41 490.22,410.49 C492.69,427.46 496.19,433.10 507.94,439.00 C511.24,440.66 514.18,441.24 519.44,441.27 C527.81,441.32 530.79,440.00 542.44,431.08 C546.81,427.74 550.67,425.00 551.02,425.00 C551.87,425.00 561.19,432.28 568.65,438.77 C574.54,443.90 585.87,456.53 590.82,463.49 L 593.26 466.92 L 586.75 475.71 C577.62,488.05 576.64,490.25 576.56,498.50 C576.49,506.71 579.12,513.12 584.96,518.96 C590.17,524.17 594.59,525.90 607.46,527.77 C620.65,529.69 619.30,528.02 621.07,544.50 C622.53,558.13 621.06,586.27 618.77,588.57 C618.46,588.87 613.78,589.76 608.36,590.56 C595.85,592.39 590.68,594.34 585.42,599.18 C579.68,604.47 576.59,611.74 576.58,620.00 C576.57,625.90 577.80,629.99 581.74,637.11 C581.92,637.45 580.60,638.34 578.79,639.08 C576.98,639.83 573.64,642.14 571.38,644.23 L 567.25 648.02 L 564.65 644.61 C557.87,635.72 543.43,634.59 535.17,642.30 C530.00,647.11 528.57,651.65 528.02,664.92 ZM 411.78 795.44 C408.39,797.82 401.04,797.45 397.84,794.75 C392.88,790.55 391.71,785.40 394.49,780.01 C396.67,775.81 399.83,774.00 405.00,774.00 C407.51,774.00 410.56,774.70 411.78,775.56 C414.59,777.53 417.00,782.12 417.00,785.50 C417.00,788.88 414.59,793.47 411.78,795.44 ZM 627.60 793.60 C624.74,796.46 623.49,797.00 619.68,797.00 C614.47,797.00 610.07,793.99 608.02,789.04 C606.41,785.16 607.29,781.88 611.12,777.52 C613.88,774.38 614.74,774.00 619.20,774.00 C623.55,774.00 624.64,774.44 627.60,777.40 C630.50,780.30 631.00,781.49 631.00,785.50 C631.00,789.51 630.50,790.70 627.60,793.60 ZM 471.43 553.60 C468.99,555.47 466.31,557.00 465.49,557.00 C462.98,557.00 463.83,554.45 466.85,552.93 C468.41,552.14 471.33,550.63 473.33,549.57 C475.34,548.51 477.32,548.01 477.74,548.46 C478.16,548.91 477.91,549.48 477.19,549.74 C476.47,550.00 473.88,551.73 471.43,553.60 ZM 451.57 549.99 C451.57,551.13 450.91,551.79 449.85,551.71 C448.91,551.64 448.22,551.12 448.32,550.54 C448.42,549.97 448.03,549.58 447.46,549.68 C446.89,549.78 446.43,549.03 446.43,548.01 C446.43,546.44 446.74,546.33 448.46,547.29 C449.58,547.92 450.74,548.36 451.04,548.28 C451.33,548.21 451.57,548.98 451.57,549.99 Z" fill="rgb(42,120,249)"/>
<path d="M 589.08 735.08 C585.59,738.56 580.79,738.94 577.01,736.04 C574.80,734.35 574.45,733.13 573.87,725.31 C573.51,720.47 573.46,703.00 573.76,686.50 L 574.30 656.50 L 578.43 652.34 C583.21,647.52 587.61,646.28 593.89,647.97 C598.18,649.13 606.00,655.96 606.00,658.55 C606.00,659.27 607.51,663.15 609.36,667.18 C613.24,675.65 617.55,685.76 619.72,691.50 C620.56,693.70 621.63,696.40 622.10,697.50 C622.57,698.60 623.44,700.82 624.02,702.42 C624.94,704.95 625.27,705.15 626.50,703.92 C627.28,703.14 631.50,693.72 635.88,683.00 C640.25,672.28 644.55,661.82 645.43,659.76 C648.63,652.24 656.10,647.02 663.72,647.01 C667.99,646.99 673.82,650.98 676.46,655.71 L 679.00 660.25 L 679.00 730.86 L 675.63 734.43 C671.11,739.22 666.36,739.40 662.59,734.92 L 660.00 731.85 L 660.00 702.59 C660.00,686.50 659.70,673.04 659.34,672.68 C658.39,671.72 656.00,673.97 656.00,675.83 C656.00,676.70 654.48,680.81 652.63,684.96 C650.77,689.11 648.86,693.67 648.38,695.09 C646.80,699.74 639.83,717.42 638.35,720.50 C633.99,729.60 631.26,731.96 625.12,731.99 C619.06,732.01 616.55,727.95 605.61,700.41 C595.75,675.59 594.54,673.00 592.88,673.00 C592.39,673.00 592.00,686.28 592.00,702.58 L 592.00 732.15 ZM 415.00 734.11 C410.30,737.49 407.74,737.43 403.29,733.81 C400.89,731.87 398.96,729.31 398.61,727.62 C398.27,726.04 398.01,709.17 398.01,690.12 C398.03,652.06 398.08,651.73 404.01,648.75 C406.97,647.27 410.39,647.01 426.50,647.02 C447.30,647.03 455.34,648.25 462.60,652.50 C472.03,658.03 473.82,674.43 465.88,682.62 C464.08,684.48 461.98,686.00 461.21,686.00 C459.46,686.00 454.00,689.17 454.00,690.19 C454.00,690.60 456.36,692.06 459.25,693.43 C463.68,695.53 464.83,696.67 466.60,700.71 C469.08,706.39 471.35,722.04 470.40,727.00 C469.36,732.48 465.47,736.00 460.45,736.00 C452.38,736.00 450.17,732.23 448.00,714.71 C446.44,702.10 443.71,700.00 428.85,700.00 L 420.00 700.00 L 419.99 713.75 C419.97,728.42 419.34,730.98 415.00,734.11 ZM 536.70 736.86 C530.40,739.43 504.24,737.23 503.18,734.04 C502.99,733.47 501.85,733.00 500.65,733.00 C496.40,733.00 491.29,728.33 487.82,721.28 L 484.50 714.54 L 484.50 656.35 L 487.25 652.20 C488.77,649.91 491.08,647.77 492.39,647.44 C495.25,646.72 500.88,649.38 501.63,651.80 C501.92,652.74 502.82,654.74 503.63,656.25 C504.85,658.51 505.07,663.86 504.90,686.49 L 504.70 713.98 L 509.52 718.24 C517.53,725.32 527.15,725.35 534.12,718.32 L 537.91 714.50 L 538.60 685.80 C539.25,659.16 539.46,656.82 541.42,653.33 C542.58,651.26 544.75,648.88 546.24,648.04 C548.71,646.65 549.25,646.68 552.42,648.39 C558.91,651.88 559.34,654.06 559.82,685.78 L 560.24 714.07 L 557.09 720.48 C552.98,728.82 549.43,731.67 536.70,736.86 ZM 277.53 737.91 C271.43,739.04 257.74,739.41 256.80,738.47 C256.51,738.18 253.27,737.08 249.60,736.03 C243.79,734.37 241.52,733.09 235.24,727.94 C233.72,726.69 234.58,722.29 236.86,719.67 C238.75,717.51 241.77,717.74 252.93,720.90 C267.98,725.16 280.49,722.58 282.41,714.82 C284.06,708.15 278.74,703.84 263.50,699.48 C254.36,696.88 245.05,692.23 239.48,687.50 C235.08,683.77 234.30,682.52 233.15,677.32 C231.25,668.74 233.53,659.39 238.64,654.85 C242.98,650.99 251.04,647.20 257.15,646.13 C267.86,644.27 275.10,644.73 288.27,648.12 C292.41,649.19 298.57,654.05 299.50,657.01 C300.29,659.50 297.77,664.25 294.81,665.83 C292.78,666.92 291.64,666.73 286.53,664.47 C279.76,661.47 270.80,660.50 261.00,661.70 C254.90,662.45 254.39,662.72 252.61,666.04 C250.77,669.47 250.76,669.70 252.51,673.38 C254.59,677.75 261.39,681.44 269.11,682.37 C281.78,683.89 297.46,692.14 301.80,699.56 C303.83,703.02 304.06,704.49 303.68,711.59 C303.30,718.60 302.84,720.23 300.28,723.77 C294.62,731.59 287.37,736.09 277.53,737.91 ZM 367.41 737.56 C357.76,740.08 344.29,738.77 336.23,734.53 C324.79,728.52 319.27,722.49 314.91,711.24 C312.24,704.35 311.25,689.44 312.88,680.67 C317.17,657.54 337.01,643.30 362.03,645.38 C366.42,645.75 371.25,646.55 372.76,647.16 C380.91,650.48 382.69,651.48 384.71,653.88 C387.90,657.65 387.63,661.29 383.92,664.41 C380.27,667.49 378.17,667.63 373.21,665.13 C368.01,662.51 361.72,661.82 353.09,662.91 C344.30,664.03 341.37,665.87 338.14,672.31 C335.19,678.20 334.03,694.65 335.97,703.10 C339.94,720.37 355.63,726.43 374.34,717.93 C379.85,715.43 383.47,715.51 385.96,718.19 C389.26,721.73 388.60,725.33 383.89,729.36 C378.99,733.56 374.81,735.64 367.41,737.56 ZM 418.01 684.02 C419.13,686.11 419.70,686.20 429.34,685.81 C441.49,685.33 446.04,683.55 448.52,678.32 C450.95,673.20 449.78,666.60 445.81,662.97 C443.02,660.43 441.89,660.15 431.87,659.49 C418.00,658.59 417.83,658.70 418.66,668.55 C419.08,673.42 418.87,676.90 418.06,678.86 C417.11,681.14 417.10,682.32 418.01,684.02 ZM 304.79 793.10 C302.55,795.02 300.38,795.92 298.00,795.93 C293.88,795.94 289.00,792.67 289.00,789.90 C289.00,788.84 288.47,787.13 287.83,786.10 C285.96,783.10 288.36,778.81 293.47,776.02 L 297.87 773.61 L 301.57 775.56 C309.58,779.76 311.04,787.75 304.79,793.10 ZM 518.04 793.85 C515.88,795.58 513.30,796.98 512.31,796.96 C511.31,796.93 508.61,795.25 506.29,793.21 C502.21,789.61 502.10,789.35 502.55,784.50 C502.85,781.32 503.62,779.14 504.66,778.50 C505.57,777.95 507.01,776.71 507.87,775.75 C509.45,773.99 514.00,773.30 514.00,774.81 C514.00,775.26 515.47,776.33 517.26,777.18 C524.41,780.59 524.78,788.43 518.04,793.85 Z" fill="rgb(204,218,58)"/>
<path d="M 418.01 684.02 C417.10,682.32 417.11,681.14 418.06,678.86 C418.87,676.90 419.08,673.42 418.66,668.55 C417.83,658.70 418.00,658.59 431.87,659.49 C441.89,660.15 443.02,660.43 445.81,662.97 C449.78,666.60 450.95,673.20 448.52,678.32 C446.04,683.55 441.49,685.33 429.34,685.81 C419.70,686.20 419.13,686.11 418.01,684.02 ZM 420.00 661.00 L 420.00 685.00 L 427.25 684.98 C436.40,684.94 442.87,683.47 445.75,680.76 C447.54,679.08 448.00,677.56 448.00,673.26 C448.00,663.12 444.89,661.00 430.05,661.00 ZM 536.70 736.86 C542.33,734.56 546.17,732.73 549.05,730.67 C547.23,732.08 545.22,733.26 543.00,734.22 C541.08,735.04 538.15,736.29 536.50,737.00 C532.83,738.56 515.04,739.23 509.33,738.02 C502.19,736.50 494.28,732.13 490.11,727.39 C483.35,719.71 483.00,717.57 483.00,683.86 L 483.00 654.07 L 486.04 650.61 C489.94,646.17 493.85,645.26 498.67,647.67 C505.65,651.15 506.00,652.88 506.00,684.09 C506.00,711.13 506.05,711.77 508.27,715.10 C513.00,722.18 523.31,724.19 530.36,719.40 C536.68,715.10 537.00,713.40 537.00,683.50 C537.00,653.93 537.41,651.59 543.19,647.97 C547.85,645.06 552.57,645.92 556.75,650.45 L 560.00 653.97 L 560.00 698.02 L 559.82 685.78 C559.34,654.06 558.91,651.88 552.42,648.39 C549.25,646.68 548.71,646.65 546.24,648.04 C544.75,648.88 542.58,651.26 541.42,653.33 C539.46,656.82 539.25,659.16 538.60,685.80 L 537.91 714.50 L 534.12 718.32 C527.15,725.35 517.53,725.32 509.52,718.24 L 504.70 713.98 L 504.90 686.49 C505.07,663.86 504.85,658.51 503.63,656.25 C502.82,654.74 501.92,652.74 501.63,651.80 C500.88,649.38 495.25,646.72 492.39,647.44 C491.08,647.77 488.77,649.91 487.25,652.20 L 484.50 656.35 L 484.50 714.54 L 487.82 721.28 C491.29,728.33 496.40,733.00 500.65,733.00 C501.85,733.00 502.99,733.47 503.18,734.04 C504.24,737.23 530.40,739.43 536.70,736.86 ZM 520.60 793.60 C517.67,796.53 516.54,797.00 512.35,797.00 C498.94,796.98 495.36,780.33 507.53,774.55 C515.21,770.91 524.00,776.84 524.00,785.68 C524.00,789.49 523.46,790.74 520.60,793.60 ZM 305.95 794.05 C300.88,798.78 293.49,798.35 288.76,793.06 C280.53,783.85 291.65,768.99 302.55,774.65 C310.50,778.77 312.16,788.25 305.95,794.05 ZM 304.79 793.10 C311.04,787.75 309.58,779.76 301.57,775.56 L 297.87 773.61 L 293.47 776.02 C288.36,778.81 285.96,783.10 287.83,786.10 C288.47,787.13 289.00,788.84 289.00,789.90 C289.00,792.67 293.88,795.94 298.00,795.93 C300.38,795.92 302.55,795.02 304.79,793.10 ZM 518.04 793.85 C524.78,788.43 524.41,780.59 517.26,777.18 C515.47,776.33 514.00,775.26 514.00,774.81 C514.00,773.30 509.45,773.99 507.87,775.75 C507.01,776.71 505.57,777.95 504.66,778.50 C503.62,779.14 502.85,781.32 502.55,784.50 C502.10,789.35 502.21,789.61 506.29,793.21 C508.61,795.25 511.31,796.93 512.31,796.96 C513.30,796.98 515.88,795.58 518.04,793.85 ZM 257.28 697.41 C236.85,690.76 231.00,684.96 231.00,671.85 C231.00,664.83 232.93,659.71 237.30,655.18 C242.37,649.93 246.25,648.04 255.17,646.47 C255.85,646.35 256.50,646.24 257.15,646.13 C251.04,647.20 242.98,650.99 238.64,654.85 C233.53,659.39 231.25,668.74 233.15,677.32 C234.30,682.52 235.08,683.77 239.48,687.50 C243.78,691.15 250.32,694.76 257.28,697.41 ZM 276.26 661.68 C274.68,661.59 272.80,661.56 270.42,661.55 C260.89,661.50 260.15,661.65 256.67,664.30 C253.73,666.55 253.00,667.77 253.00,670.46 C253.00,675.01 256.82,678.08 265.88,680.84 C267.92,681.46 270.61,682.27 273.27,683.08 C271.86,682.77 270.47,682.53 269.11,682.37 C261.39,681.44 254.59,677.75 252.51,673.38 C250.76,669.70 250.77,669.47 252.61,666.04 C254.39,662.72 254.90,662.45 261.00,661.70 C266.42,661.04 271.58,661.04 276.26,661.68 ZM 256.80 738.47 C255.13,738.32 253.51,738.12 252.00,737.87 C241.52,736.16 230.79,728.81 234.04,725.56 C234.22,725.38 234.40,725.11 234.55,724.80 C234.36,726.19 234.56,727.38 235.24,727.94 C241.52,733.09 243.79,734.37 249.60,736.03 C253.27,737.08 256.51,738.18 256.80,738.47 ZM 279.07 706.11 C276.34,704.16 271.89,702.26 265.13,699.96 C271.69,701.93 276.25,703.90 279.07,706.11 ZM 235.00 722.95 C235.00,722.05 235.88,720.51 236.96,719.54 C237.01,719.49 237.06,719.44 237.12,719.40 C237.03,719.48 236.95,719.57 236.86,719.67 C236.05,720.61 235.41,721.78 235.00,722.95 ZM 556.20 722.20 C556.50,721.65 556.79,721.08 557.09,720.48 L 560.00 714.56 L 560.00 714.68 L 556.94 720.80 C556.70,721.28 556.46,721.74 556.20,722.20 ZM 238.93 718.41 C240.53,717.98 242.84,718.26 247.27,719.38 C243.00,718.32 240.55,718.03 238.93,718.41 ZM 291.55 690.43 C289.07,688.93 286.32,687.54 283.47,686.35 C286.24,687.46 289.01,688.87 291.55,690.43 ZM 277.53 737.91 C275.65,738.26 273.46,738.51 271.11,738.66 C273.55,738.48 275.84,738.22 277.53,737.91 Z" fill="rgb(205,218,83)"/>
<path d="M 0.00 572.50 L 0.00 0.00 L 458.00 0.00 L 916.00 0.00 L 916.00 572.50 L 916.00 1145.00 L 458.00 1145.00 L 0.00 1145.00 L 0.00 572.50 ZM 305.95 794.05 C312.16,788.25 310.50,778.77 302.55,774.65 C291.65,768.99 280.53,783.85 288.76,793.06 C293.49,798.35 300.88,798.78 305.95,794.05 ZM 411.78 795.44 C414.59,793.47 417.00,788.88 417.00,785.50 C417.00,782.12 414.59,777.53 411.78,775.56 C410.56,774.70 407.51,774.00 405.00,774.00 C399.83,774.00 396.67,775.81 394.49,780.01 C391.71,785.40 392.88,790.55 397.84,794.75 C401.04,797.45 408.39,797.82 411.78,795.44 ZM 520.60 793.60 C523.46,790.74 524.00,789.49 524.00,785.68 C524.00,776.84 515.21,770.91 507.53,774.55 C495.36,780.33 498.94,796.98 512.35,797.00 C516.54,797.00 517.67,796.53 520.60,793.60 ZM 627.60 793.60 C630.50,790.70 631.00,789.51 631.00,785.50 C631.00,781.49 630.50,780.30 627.60,777.40 C624.64,774.44 623.55,774.00 619.20,774.00 C614.74,774.00 613.88,774.38 611.12,777.52 C607.29,781.88 606.41,785.16 608.02,789.04 C610.07,793.99 614.47,797.00 619.68,797.00 C623.49,797.00 624.74,796.46 627.60,793.60 ZM 277.53 737.91 C287.37,736.09 294.62,731.59 300.28,723.77 C302.84,720.23 303.30,718.60 303.68,711.59 C304.06,704.49 303.83,703.02 301.80,699.56 C298.77,694.37 288.86,687.82 280.00,685.12 C276.15,683.96 269.80,682.03 265.88,680.84 C256.82,678.08 253.00,675.01 253.00,670.46 C253.00,667.77 253.73,666.55 256.67,664.30 C260.15,661.65 260.89,661.50 270.42,661.55 C279.24,661.59 281.25,661.94 286.48,664.34 C291.66,666.72 292.77,666.92 294.81,665.83 C297.77,664.25 300.29,659.50 299.50,657.01 C298.57,654.05 292.41,649.19 288.27,648.12 C274.52,644.58 267.79,644.25 255.17,646.47 C246.25,648.04 242.37,649.93 237.30,655.18 C232.93,659.71 231.00,664.83 231.00,671.85 C231.00,685.32 237.17,691.07 259.00,697.96 C279.78,704.52 284.17,707.68 282.41,714.82 C280.49,722.57 268.00,725.15 252.93,720.91 C241.60,717.71 239.20,717.51 236.96,719.54 C235.88,720.51 235.00,722.05 235.00,722.96 C235.00,723.86 234.57,725.03 234.04,725.56 C230.79,728.81 241.52,736.16 252.00,737.87 C259.89,739.16 270.70,739.17 277.53,737.91 ZM 367.41 737.56 C374.81,735.64 378.99,733.56 383.89,729.36 C388.60,725.33 389.26,721.73 385.96,718.19 C383.47,715.51 379.85,715.43 374.34,717.93 C355.63,726.43 339.94,720.37 335.97,703.10 C334.03,694.65 335.19,678.20 338.14,672.31 C341.37,665.87 344.30,664.03 353.09,662.91 C361.72,661.82 368.01,662.51 373.21,665.13 C378.17,667.63 380.27,667.49 383.92,664.41 C387.63,661.29 387.90,657.65 384.71,653.88 C382.69,651.48 380.91,650.48 372.76,647.16 C371.25,646.55 366.42,645.75 362.03,645.38 C337.01,643.30 317.17,657.54 312.88,680.67 C311.25,689.44 312.24,704.35 314.91,711.24 C319.27,722.49 324.79,728.52 336.23,734.53 C344.29,738.77 357.76,740.08 367.41,737.56 ZM 536.50 737.00 C538.15,736.29 541.08,735.04 543.00,734.22 C549.17,731.57 553.77,727.14 556.94,720.80 L 560.00 714.68 L 560.00 684.33 L 560.00 653.97 L 556.75 650.45 C552.57,645.92 547.85,645.06 543.19,647.97 C537.41,651.59 537.00,653.93 537.00,683.50 C537.00,713.40 536.68,715.10 530.36,719.40 C523.31,724.19 513.00,722.18 508.27,715.10 C506.05,711.77 506.00,711.13 506.00,684.09 C506.00,652.88 505.65,651.15 498.67,647.67 C493.85,645.26 489.94,646.17 486.04,650.61 L 483.00 654.07 L 483.00 683.86 C483.00,717.57 483.35,719.71 490.11,727.39 C494.28,732.13 502.19,736.50 509.33,738.02 C515.04,739.23 532.83,738.56 536.50,737.00 ZM 589.08 735.08 L 592.00 732.15 L 592.00 702.58 C592.00,686.28 592.39,673.00 592.88,673.00 C594.54,673.00 595.75,675.59 605.61,700.41 C616.55,727.95 619.06,732.01 625.12,731.99 C631.26,731.96 633.99,729.60 638.35,720.50 C639.83,717.42 646.80,699.74 648.38,695.09 C648.86,693.67 650.77,689.11 652.63,684.96 C654.48,680.81 656.00,676.70 656.00,675.83 C656.00,673.97 658.39,671.72 659.34,672.68 C659.70,673.04 660.00,686.50 660.00,702.59 L 660.00 731.85 L 662.59 734.92 C666.36,739.40 671.11,739.22 675.63,734.43 L 679.00 730.86 L 679.00 695.55 L 679.00 660.25 L 676.46 655.71 C673.82,650.98 667.99,646.99 663.72,647.01 C656.10,647.02 648.63,652.24 645.43,659.76 C644.55,661.82 640.25,672.28 635.88,683.00 C631.50,693.72 627.28,703.14 626.50,703.92 C625.27,705.15 624.94,704.95 624.02,702.42 C623.44,700.82 622.57,698.60 622.10,697.50 C621.63,696.40 620.56,693.70 619.72,691.50 C617.55,685.76 613.24,675.65 609.36,667.18 C607.51,663.15 606.00,659.27 606.00,658.55 C606.00,655.96 598.18,649.13 593.89,647.97 C587.61,646.28 583.21,647.52 578.43,652.34 L 574.30 656.50 L 573.76 686.50 C573.46,703.00 573.51,720.47 573.87,725.31 C574.45,733.13 574.80,734.35 577.01,736.04 C580.79,738.94 585.59,738.56 589.08,735.08 ZM 415.00 734.11 C419.34,730.98 419.97,728.42 419.99,713.75 L 420.00 700.00 L 428.85 700.00 C443.71,700.00 446.44,702.10 448.00,714.71 C450.17,732.23 452.38,736.00 460.45,736.00 C465.47,736.00 469.36,732.48 470.40,727.00 C471.35,722.04 469.08,706.39 466.60,700.71 C464.83,696.67 463.68,695.53 459.25,693.43 C456.36,692.06 454.00,690.60 454.00,690.19 C454.00,689.17 459.46,686.00 461.21,686.00 C461.98,686.00 464.08,684.48 465.88,682.62 C473.82,674.43 472.03,658.03 462.60,652.50 C455.34,648.25 447.30,647.03 426.50,647.02 C410.39,647.01 406.97,647.27 404.01,648.75 C398.08,651.73 398.03,652.06 398.01,690.12 C398.01,709.17 398.27,726.04 398.61,727.62 C398.96,729.31 400.89,731.87 403.29,733.81 C407.74,737.43 410.30,737.49 415.00,734.11 ZM 528.02 664.92 C528.57,651.65 530.00,647.11 535.17,642.30 C543.43,634.59 557.87,635.72 564.65,644.61 L 567.25 648.02 L 571.38 644.23 C573.64,642.14 576.98,639.83 578.79,639.08 C580.60,638.34 581.92,637.45 581.74,637.11 C577.80,629.99 576.57,625.90 576.58,620.00 C576.59,611.74 579.68,604.47 585.42,599.18 C590.68,594.34 595.85,592.39 608.36,590.56 C613.78,589.76 618.46,588.87 618.77,588.57 C621.06,586.27 622.53,558.13 621.07,544.50 C619.30,528.02 620.65,529.69 607.46,527.77 C594.59,525.90 590.17,524.17 584.96,518.96 C579.12,513.12 576.49,506.71 576.56,498.50 C576.64,490.25 577.62,488.05 586.75,475.71 L 593.26 466.92 L 590.82 463.49 C585.87,456.53 574.54,443.90 568.65,438.77 C561.19,432.28 551.87,425.00 551.02,425.00 C550.67,425.00 546.81,427.74 542.44,431.08 C530.79,440.00 527.81,441.32 519.44,441.27 C514.18,441.24 511.24,440.66 507.94,439.00 C496.19,433.10 492.69,427.46 490.22,410.49 C488.76,400.41 488.28,398.87 486.52,398.49 C481.43,397.41 465.77,396.01 458.79,396.00 C449.13,396.00 430.86,397.92 429.41,399.09 C428.82,399.58 427.77,404.59 427.08,410.24 C425.63,422.20 422.71,429.29 417.26,434.08 C411.68,438.98 405.55,441.29 398.03,441.33 C389.86,441.38 385.19,439.35 374.55,431.14 C370.17,427.76 366.28,425.00 365.90,425.00 C362.64,425.00 334.24,452.34 327.30,462.17 L 324.09 466.70 L 331.45 476.86 C336.59,483.96 339.17,488.56 340.03,492.11 C343.31,505.81 335.01,521.29 322.17,525.38 C319.60,526.20 313.30,527.42 308.17,528.09 C300.01,529.15 298.73,529.59 297.99,531.53 C296.34,535.87 294.76,558.44 295.45,567.81 C296.15,577.46 297.62,587.95 298.36,588.69 C298.59,588.92 303.44,589.77 309.14,590.56 C322.68,592.46 325.46,593.46 330.76,598.34 C337.63,604.68 340.44,610.95 340.47,620.00 C340.50,626.68 340.14,628.14 337.16,633.39 C334.47,638.14 334.18,639.14 335.66,638.57 C350.92,632.62 375.65,634.52 387.46,642.54 L 390.93 644.89 L 395.91 641.70 C398.64,639.94 400.89,638.28 400.89,638.00 C400.90,637.72 398.52,635.56 395.61,633.18 C380.84,621.12 369.21,601.91 363.83,580.72 C360.87,569.07 360.88,549.86 363.84,537.69 C370.77,509.27 388.06,486.81 413.26,473.53 C469.25,444.00 537.91,475.09 552.97,536.78 C560.20,566.40 552.59,597.72 532.06,622.86 C528.77,626.88 514.64,639.13 510.49,641.55 C508.82,642.52 508.89,642.88 511.59,646.96 C514.30,651.05 514.52,652.13 514.99,663.91 L 515.50 676.50 L 520.50 677.08 C523.25,677.41 525.95,677.60 526.50,677.50 C527.07,677.41 527.72,672.01 528.02,664.92 ZM 471.43 553.60 C473.88,551.73 476.47,550.00 477.19,549.74 C477.91,549.48 478.16,548.91 477.74,548.46 C477.32,548.01 475.34,548.51 473.33,549.57 C471.33,550.63 468.41,552.14 466.85,552.93 C463.83,554.45 462.98,557.00 465.49,557.00 C466.31,557.00 468.99,555.47 471.43,553.60 ZM 451.57 549.99 C451.57,548.98 451.33,548.21 451.04,548.28 C450.74,548.36 449.58,547.92 448.46,547.29 C446.74,546.33 446.43,546.44 446.43,548.01 C446.43,549.03 446.89,549.78 447.46,549.68 C448.03,549.58 448.42,549.97 448.32,550.54 C448.22,551.12 448.91,551.64 449.85,551.71 C450.91,551.79 451.57,551.13 451.57,549.99 ZM 420.00 673.00 L 420.00 661.00 L 430.05 661.00 C444.89,661.00 448.00,663.12 448.00,673.26 C448.00,677.56 447.54,679.08 445.75,680.76 C442.87,683.47 436.40,684.94 427.25,684.98 L 420.00 685.00 L 420.00 673.00 Z" fill="rgb(253,254,254)"/>
</g>
</svg>